<svg xmlns="http://www.w3.org/2000/svg" width="79" height="68"><g data-name="Vector Smart Object"><path data-name="Path 1" d="M29.109 60.584V16.375l-5.489-5.682v55.434h53.551l-5.355-5.543z" fill="#d4e1f4"/><path data-name="Path 2" d="M7.369 60.584V1.874h-5.49v64.253H16.41v-5.543z" fill="#d4e1f4"/><g data-name="Group 1" fill="#1ae5be"><path data-name="Path 3" d="M51.506 57.738H35.243a1.839 1.839 0 01-1.83-1.848V38.06a1.846 1.846 0 011.165-1.722 1.815 1.815 0 012.011.469l16.264 17.831a1.861 1.861 0 01.33 1.994 1.829 1.829 0 01-1.676 1.106zm-14.433-3.7h10.26l-10.26-11.245z"/><path data-name="Path 4" d="M27.412 39.394H23.62a1.85 1.85 0 010-3.7h3.792a1.85 1.85 0 010 3.7z"/><path data-name="Path 5" d="M27.412 57.557H23.62a1.85 1.85 0 010-3.7h3.792a1.85 1.85 0 010 3.7z"/><path data-name="Path 6" d="M7.081 30.915h-5.2a1.85 1.85 0 010-3.7h5.2a1.85 1.85 0 010 3.7z"/><path data-name="Path 7" d="M7.951 60.159H4.116a1.85 1.85 0 010-3.7h3.835a1.85 1.85 0 010 3.7z"/></g><path data-name="Path 8" d="M18.116 1.848A1.839 1.839 0 0016.286 0H1.83A1.839 1.839 0 000 1.848v64.3a1.839 1.839 0 001.83 1.848h14.456a1.839 1.839 0 001.83-1.848zm-3.477 62.457H3.66V46.75h6.253a1.85 1.85 0 000-3.7H3.66V14.968h6.253a1.85 1.85 0 000-3.7H3.66V3.696h10.979z" fill="#0635c9"/><path data-name="Path 9" d="M24.929 9.403a1.827 1.827 0 00-2.005-.422 1.857 1.857 0 00-1.149 1.712v55.434A1.872 1.872 0 0023.619 68h53.552a1.844 1.844 0 001.686-1.142 1.875 1.875 0 00-.376-2.015zm.506 54.9V48.414h3.942a1.85 1.85 0 000-3.7h-3.942V30.305h3.942a1.85 1.85 0 000-3.7h-3.942V15.238l47.394 49.067z" fill="#0635c9"/></g></svg>